<?xml version="1.0" encoding="UTF-8" standalone="no"?>
<!-- Generator: Adobe Illustrator 25.3.1, SVG Export Plug-In . SVG Version: 6.00 Build 0)  -->

<svg
   version="1.1"
   viewBox="0 0 975.98585 328.61567"
   xml:space="preserve"
   id="svg13816"
   xmlns="http://www.w3.org/2000/svg"
   xmlns:svg="http://www.w3.org/2000/svg"><defs
   id="defs19" />
<path
   id="path6041"
   style="fill:#3c53fa" 
   d="M 234.08383,0 V 145.38164 H 379.46554 V 0 Z M 415.77497,0 V 145.38164 H 561.15504 V 0 Z M 597.32382,0 V 145.38164 H 742.70392 V 0 Z M 676.58385,30.94056 C 681.10498,30.94056 685.3437,31.3663 689.44092,32.35523 693.53816,33.34417 697.21064,34.61502 700.7427,36.45177 V 52.27529 C 697.63444,50.15604 694.10371,48.60258 690.43029,47.47226 686.61558,46.34203 682.65851,45.77578 678.84388,45.91709 673.19248,45.91709 668.3892,46.90664 664.43328,49.02589 660.47731,51.00385 657.3695,54.25292 655.39147,58.06764 653.27225,62.02347 652.28269,66.82695 652.28269,72.47824 652.28269,78.12943 653.27225,83.07517 655.39147,87.03113 657.3695,90.98703 660.47801,94.09595 664.29266,96.215207 668.24863,98.33446 672.91031,99.322268 678.42035,99.322268 686.89735,99.322268 694.66894,97.062746 701.87439,92.68283 V 108.36409 H 701.73209 C 698.34124,110.2008 694.38659,111.75623 690.00676,112.74519 685.48572,113.87536 680.82231,114.29874 675.87738,114.29874 669.37836,114.29874 663.44481,113.30959 658.21735,111.47289 652.98986,109.49487 648.61008,106.81024 644.93679,103.27818 641.26336,99.746105 638.57947,95.36739 636.60147,90.13989 634.62353,84.91252 633.77558,79.11941 633.77558,72.62051 633.77558,66.26272 634.76417,60.61157 636.74208,55.38402 638.72011,50.29776 641.68691,45.91744 645.36035,42.2441 649.17499,38.57078 653.69631,35.74551 658.92382,33.90878 664.1513,31.9309 670.0848,30.94056 676.58385,30.94056 Z M 274.91498,31.78942 H 305.57266 C 314.61479,31.78942 321.67952,33.62617 326.62441,37.15819 331.56931,40.83151 334.11265,45.91725 334.11265,52.69878 334.11265,56.65479 333.26578,59.90542 331.42908,62.87234 329.59244,65.69793 327.04935,67.95685 323.51731,69.6524 328.32095,71.20646 331.99311,73.75073 334.53619,77.28286 337.07931,80.67366 338.35148,84.91211 338.35148,89.85697 338.49276,94.802 337.22163,99.039675 334.67848,102.57171 332.13539,106.1038 328.60254,108.78908 324.08145,110.62578 319.4191,112.46252 313.90923,113.44997 307.55146,113.44997 H 274.91498 Z M 456.74678,31.78942 H 487.40446 C 496.44662,31.78942 503.51124,33.62617 508.45619,37.15819 513.40113,40.83151 515.94444,45.91725 515.94444,52.69878 515.94444,56.65479 515.09753,59.90542 513.26084,62.87234 511.42415,65.69793 508.88121,67.95685 505.34909,69.6524 510.15277,71.20646 513.82484,73.75073 516.36797,77.28286 518.91107,80.67366 520.18321,84.91211 520.18321,89.85697 520.04161,94.802 518.76979,99.039675 516.36797,102.57171 513.82484,106.1038 510.29366,108.78908 505.77265,110.62578 501.11025,112.46252 495.60042,113.44997 489.24264,113.44997 H 456.74678 Z M 291.445,45.06997 V 65.41524 H 304.01913 C 308.39892,65.41524 311.64915,64.42595 313.90966,62.58938 316.17022,60.75263 317.2997,58.06764 317.2997,54.81821 317.2997,48.31911 312.92,45.06997 304.01913,45.06997 Z M 473.13617,45.06997 V 65.41524 H 485.71027 C 490.09009,65.41524 493.34026,64.42595 495.60082,62.58938 497.86138,60.75263 498.99088,58.06764 498.99088,54.81821 498.99088,48.31911 494.61119,45.06997 485.71027,45.06997 Z M 291.445,78.27231 V 100.31173 H 305.8556 C 310.80052,100.31173 314.61534,99.32253 317.2997,97.485796 319.98411,95.6492 321.25558,92.96561 321.25558,89.43342 321.397,81.94545 316.31092,78.27231 306.13853,78.27231 Z M 473.13617,78.27231 V 100.31173 H 487.54675 C 492.49164,100.31173 496.30649,99.32253 498.99088,97.485796 501.67525,95.6492 502.94676,92.96561 502.94676,89.43342 503.08804,81.94545 498.0021,78.27231 487.82968,78.27231 Z" /><path
   style="fill:#3c53fa" 
   d="M 41.496601,328.61565 Q 30.988881,328.61565 20.659252,326.30039 10.507723,323.98513 1.068582,318.99841 V 294.42103 Q 20.124961,305.99733 41.496601,305.99733 53.607201,305.99733 59.840591,301.9011 66.252081,297.80487 66.252081,290.50289 66.252081,284.98189 63.046341,281.95424 60.018691,278.74849 54.853881,276.96752 49.689061,275.00845 43.277571,273.40558 32.769851,270.91222 24.755483,267.70648 16.741118,264.50073 11.220111,260.2264 5.699104,255.77398 2.849552,249.71868 0,243.48528 0,234.93663 0,222.82603 6.055298,214.09928 12.288693,205.37253 23.508804,200.742 34.728911,195.93339 50.223351,195.93339 60.374881,195.93339 70.170221,198.24865 79.965551,200.56391 87.801821,204.48204 V 228.70323 Q 79.965551,223.89461 69.992121,221.22316 60.196791,218.5517 50.223351,218.5517 39.359441,218.5517 33.304141,222.29174 27.426938,226.03178 27.426938,232.97756 27.426938,237.96428 30.276491,240.99193 33.126041,243.84148 38.290851,245.80055 43.633761,247.58152 50.757641,249.36249 59.840591,251.67775 67.676861,254.5273 75.513131,257.19875 81.390331,261.47308 87.445631,265.74741 90.651371,272.337 94.035221,278.92659 94.035221,288.54383 94.035221,301.18871 87.801821,310.27166 81.568431,319.17651 69.814021,323.98513 58.059621,328.61565 41.496601,328.61565 Z"
   istyle="fill:#3c53fa" 
   id="path6301" /><path
   style="fill:#3c53fa" 
   d="M 172.85746,328.61565 Q 157.71921,328.61565 145.60862,324.16323 133.49802,319.5327 125.12746,310.98405 116.7569,302.43539 112.30448,290.1467 107.85205,277.67991 107.85205,262.18547 107.85205,247.04722 112.48258,234.93663 117.1131,222.64794 125.83985,213.92118 134.5666,205.19443 146.6772,200.56391 158.96589,195.93339 174.10414,195.93339 184.61186,195.93339 193.87291,198.24865 203.31205,200.38581 211.32641,204.66014 V 229.94991 Q 204.02443,224.9632 195.47578,222.46984 186.92712,219.79838 177.48798,219.79838 164.4869,219.79838 155.22586,224.7851 146.14291,229.77182 141.15619,239.21096 136.34757,248.6501 136.34757,262.18547 136.34757,275.72084 140.9781,285.33808 145.78672,294.77722 154.69157,299.76394 163.77451,304.75065 176.5975,304.75065 196.18817,304.75065 212.75119,294.24293 V 318.99841 Q 204.91492,323.45084 194.58529,325.9442 184.25567,328.61565 172.85746,328.61565 Z"
   istyle="fill:#3c53fa" 
   id="path6303" /><path
   style="fill:#3c53fa" 
   d="M 289.92432,195.93338 Q 304.35018,195.93338 315.92649,200.56391 327.68089,205.19443 335.87335,213.92118 344.24391,222.46984 348.69633,234.75853 353.14876,246.86913 353.14876,262.18547 353.14876,277.32371 348.69633,289.61241 344.24391,301.9011 335.87335,310.62785 327.68089,319.3546 315.92649,323.98513 304.35018,328.61565 289.92432,328.61565 275.49847,328.61565 263.74406,323.98513 252.16776,319.3546 243.7972,310.62785 235.60474,301.9011 231.15231,289.61241 226.69989,277.32371 226.69989,262.18547 226.69989,246.86913 231.15231,234.75853 235.60474,222.46984 243.7972,213.92118 252.16776,205.19443 263.74406,200.56391 275.49847,195.93338 289.92432,195.93338 Z M 289.92432,304.75065 Q 300.78824,304.75065 308.62451,299.76393 316.46078,294.59912 320.55701,285.15998 324.65324,275.72084 324.65324,262.18547 324.65324,248.6501 320.55701,239.21095 316.46078,229.77181 308.62451,224.7851 300.78824,219.79838 289.92432,219.79838 279.06041,219.79838 271.22414,224.7851 263.38787,229.77181 259.29164,239.21095 255.19541,248.6501 255.19541,262.18547 255.19541,275.72084 259.29164,285.15998 263.38787,294.59912 271.22414,299.76393 279.06041,304.75065 289.92432,304.75065 Z"
   istyle="fill:#3c53fa" 
   id="path3277" /><path
   style="fill:#3c53fa" 
   d="M 357.21303,198.60484 H 464.78361 V 222.46984 H 424.71179 V 325.94419 H 397.28485 V 222.46984 H 357.21303 Z"
   istyle="fill:#3c53fa" 
   id="path3273" /><path
   style="fill:#3c53fa" 
   d="M 481.26125,198.60484 H 508.68818 V 302.0792 H 569.06307 V 325.9442 H 481.26125 Z"
   istyle="fill:#3c53fa" 
   id="path6309" /><path
   style="fill:#3c53fa" 
   d="M 680.75891,325.9442 Q 676.12839,311.87453 671.49787,298.33916 H 619.84974 Q 615.21922,312.05263 610.5887,325.9442 H 581.20269 Q 593.31329,292.46196 605.78008,260.5826 618.42496,228.70323 631.24795,198.60484 H 660.81205 Q 673.99123,230.30611 686.45802,262.36357 699.10291,294.24293 710.85731,325.9442 Z M 627.68601,275.54274 H 663.48351 Q 659.20918,263.07595 654.57866,250.78726 650.12623,238.32047 645.67381,226.38797 636.41276,250.78726 627.68601,275.54274 Z"
   istyle="fill:#3c53fa" 
   id="path6311" /><path
   style="fill:#3c53fa" 
   d="M 810.40195,325.9442 Q 796.51039,303.68207 782.26263,281.41995 768.01487,258.97972 754.1233,237.96428 V 325.9442 H 727.76494 V 198.60484 H 755.54808 Q 769.97393,220.15458 783.8655,241.88241 797.93516,263.43215 811.82673,285.69427 V 198.60484 H 838.18508 V 325.9442 Z"
   istyle="fill:#3c53fa" 
   id="path6313" /><path
   style="fill:#3c53fa" 
   d="M 863.60658,198.60484 H 912.22706 Q 932.35205,198.60484 946.59985,206.08491 961.02565,213.56499 968.50575,227.81275 975.98585,241.88241 975.98585,262.00737 975.98585,282.13233 968.32765,296.55819 960.84755,310.80595 946.59985,318.46412 932.35205,325.9442 912.04896,325.9442 H 863.60658 Z M 910.62419,302.43539 Q 928.43389,302.43539 937.87305,292.10577 947.49035,281.59804 947.49035,262.00737 947.49035,242.5948 938.05115,232.44327 928.79008,222.11364 910.80228,222.11364 H 891.03352 V 302.43539 Z"
   istyle="fill:#3c53fa" 
   id="path6315" /></svg>
