<svg xmlns="http://www.w3.org/2000/svg" xmlns:xlink="http://www.w3.org/1999/xlink" viewBox="0 0 426.2 93.57"><defs><style>.cls-1,.cls-2{fill:url(#New_Gradient_Swatch_8);}.cls-1{clip-rule:evenodd;}.cls-2{fill-rule:evenodd;}.cls-3{clip-path:url(#clip-path);}.cls-4{fill:url(#New_Gradient_Swatch_8-3);}</style><linearGradient id="New_Gradient_Swatch_8" x1="144.97" y1="-67.98" x2="280.91" y2="162.21" gradientUnits="userSpaceOnUse"><stop offset="0" stop-color="#0094f2"/><stop offset="0.23" stop-color="#4506d2"/><stop offset="0.37" stop-color="#7603ad"/><stop offset="0.5" stop-color="#a60089"/><stop offset="0.63" stop-color="#c60069"/><stop offset="0.75" stop-color="#de003f"/><stop offset="1" stop-color="#ff9e00"/></linearGradient><clipPath id="clip-path"><path class="cls-1" d="M301.37,58.54c-3.21,8.06-10.39,9.21-13.86,9.21-4.8,0-8.08-1.15-12.19-4a18.91,18.91,0,0,1-7.66-13.38c-.66-8.39,2.24-14,6.42-18.27,3.85-3.9,8.19-6.54,18-6.54H334.8l4-25.52H286.11c-18.8,0-28.57,9-34.48,14.84-8.8,8.68-13.06,21-13.46,34.16s6.28,25.32,12.37,31.46C260.89,91,270.85,93.57,284.73,93.57l22.07,0h17.29l8.52-54.09H291.9l9.47,19.09Zm120.08-33,4-25.52H348.09L333.35,93.53h77.38l4.06-25.75H366.23l1.34-8.94h40.15l4-24.65H371.61l1.3-8.67ZM209.75,0l-7.84,49.79L177,0H148.11L133.37,93.54h28.81l7.87-49.79,25,49.79h28.81L238.61,0ZM52.26,22.93H39.63L37.49,36.32H50.13c5.47,0,10.27-.29,11.23-6.46s-4.14-6.93-9.1-6.93ZM49.32,56.07H34.39L32,71.57H46.85c5.58,0,12.16-.68,13.33-7.81,1.12-6.86-5.1-7.69-10.86-7.69ZM91.13,29.15C89.61,39.24,84.72,44.07,78,46.06l-1.36.36,1.23.39C87.5,50.4,90.93,56.62,89,67.75,85.75,87.09,68.22,93.54,51.86,93.54H0L14.73,0H61.12c18,0,33.38,6.85,30,29.15ZM106.65,0l-4,25.52h32.22l4-25.52Zm28.18,25.52-10.72,68H91.86l7.85-49.62,35.12-18.4Z"/></clipPath><linearGradient id="New_Gradient_Swatch_8-3" x1="2428.04" y1="12258.64" x2="2627.96" y2="12597.15" gradientTransform="matrix(0, 1, 1, 0, -12214.28, -2480.92)" xlink:href="#New_Gradient_Swatch_8"/></defs><g id="Layer_2" data-name="Layer 2"><g id="Layer_1-2" data-name="Layer 1"><path class="cls-2" d="M301.37,58.54c-3.21,8.06-10.39,9.21-13.86,9.21-4.8,0-8.08-1.15-12.19-4a18.91,18.91,0,0,1-7.66-13.38c-.66-8.39,2.24-14,6.42-18.27,3.85-3.9,8.19-6.54,18-6.54H334.8l4-25.52H286.11c-18.8,0-28.57,9-34.48,14.84-8.8,8.68-13.06,21-13.46,34.16s6.28,25.32,12.37,31.46C260.89,91,270.85,93.57,284.73,93.57l22.07,0h17.29l8.52-54.09H291.9l9.47,19.09Zm120.08-33,4-25.52H348.09L333.35,93.53h77.38l4.06-25.75H366.23l1.34-8.94h40.15l4-24.65H371.61l1.3-8.67ZM209.75,0l-7.84,49.79L177,0H148.11L133.37,93.54h28.81l7.87-49.79,25,49.79h28.81L238.61,0ZM52.26,22.93H39.63L37.49,36.32H50.13c5.47,0,10.27-.29,11.23-6.46s-4.14-6.93-9.1-6.93ZM49.32,56.07H34.39L32,71.57H46.85c5.58,0,12.16-.68,13.33-7.81,1.12-6.86-5.1-7.69-10.86-7.69ZM91.13,29.15C89.61,39.24,84.72,44.07,78,46.06l-1.36.36,1.23.39C87.5,50.4,90.93,56.62,89,67.75,85.75,87.09,68.22,93.54,51.86,93.54H0L14.73,0H61.12c18,0,33.38,6.85,30,29.15ZM106.65,0l-4,25.52h32.22l4-25.52Zm28.18,25.52-10.72,68H91.86l7.85-49.62,35.12-18.4Z"/><g class="cls-3"><path class="cls-4" d="M0,0H426.2V93.57H0Z"/></g></g></g></svg>