<?xml version="1.0" encoding="utf-8"?>
<!-- Generator: Adobe Illustrator 23.1.0, SVG Export Plug-In . SVG Version: 6.00 Build 0)  -->
<svg version="1.1"
	 id="svg10" xmlns:cc="http://creativecommons.org/ns#" xmlns:dc="http://purl.org/dc/elements/1.1/" xmlns:inkscape="http://www.inkscape.org/namespaces/inkscape" xmlns:rdf="http://www.w3.org/1999/02/22-rdf-syntax-ns#" xmlns:sodipodi="http://sodipodi.sourceforge.net/DTD/sodipodi-0.dtd" xmlns:svg="http://www.w3.org/2000/svg"
	 xmlns="http://www.w3.org/2000/svg" xmlns:xlink="http://www.w3.org/1999/xlink" x="0px" y="0px" viewBox="0 0 575.8 96.3"
	 style="enable-background:new 0 0 575.8 96.3;" xml:space="preserve">
<style type="text/css">
	.st0{fill:#29C2F1;}
</style>
<g>
	<g id="Layer_1-2">
		<g id="Layer_2-2">
			<g id="Layer_1-2-2">
				<path class="st0" d="M468.7,39.1c0.2-3.5,0.6-7,1.4-10.4c1.6-6.8,4.4-8.4,12-9.7c4.8-0.7,9.6-1.1,14.4-1.1
					c4.9,0,9.9,0.3,14.7,1.1c12.3,2.1,14.7,5.4,14.7,20.2L468.7,39.1z M511,0.9c-9.6-1.2-19.3-1.2-29-0.2c-15.3,2-24,5.2-29.3,18.1
					c-3.4,8.4-4.5,19-4.5,29.1c0,9.3,0.9,19.2,3.9,27.5c5.4,14.4,13.6,17.9,29.9,20.1c4.8,0.5,9.6,0.8,14.4,0.7
					c5,0,9.9-0.3,14.9-0.9c14.9-2,25-6.5,29.9-20.8L522,70c-2.1,4.5-5,5.4-10.9,6.8c-4.4,1.1-9.5,1.4-14.7,1.5
					c-4.8,0.1-9.5-0.3-14.3-1.1c-8.1-1.4-10.3-3.2-12.2-11.3c-0.8-3.6-1.3-7.3-1.4-10.9h75.5C546.2,20.2,541.9,5,511,0.9z
					 M416.3,1.6l-31.1,75.3L354,1.6h-21.5l38.1,92.8H400l37.9-92.8L416.3,1.6L416.3,1.6z M120.6,1.6v92.8h20.2V65.7h25.2l18.8,28.7
					h22.6l-19.7-30.7c13.2,0,22.6-12.6,22.6-29.9c0-18.2-8.2-32.1-30.3-32.1L120.6,1.6z M140.7,19.6h38.2c9,0,11.3,7,11.7,14.3
					c0.2,7.3-2.7,14.7-11.7,14.7h-38.2V19.6z M0,48.1C0,58,1.1,68.4,4.3,76.5c5.4,14.2,14.4,16.8,29.6,18.8
					c4.8,0.6,9.6,0.9,14.4,0.9c4.9,0,9.7-0.3,14.5-0.9c15.8-2,25-6.3,30.2-18.8c1.2-3,2-6.1,2.5-9.3l-19.2-4.4
					C74.1,72.2,71.2,74,63,75.6c-4.9,0.9-9.8,1.3-14.7,1.2c-4.8,0-9.6-0.5-14.4-1.4c-7.4-1.4-9-3.2-10.8-9.4c-1.4-4.7-2-11.3-2-17.9
					s0.6-13.2,2-17.9c1.8-6.3,3.4-8.1,10.8-9.4c4.7-0.9,9.6-1.4,14.4-1.4c4.9-0.1,9.9,0.4,14.7,1.2c8.2,1.6,11.1,3.4,13.3,12.7
					l19.2-4.4c-0.5-3.2-1.3-6.3-2.5-9.3C87.7,7,78.6,2.8,62.8,0.8C58,0.2,53.1-0.1,48.3-0.1s-9.6,0.3-14.4,0.9
					C18.7,2.8,9.7,5.5,4.3,19.6C1.1,28,0,38.2,0,48.1z M318.6,31.4C318.6,6.5,301.1,0,273.1,0c-12.7,0-25.7,1.8-35,4.4l5,17
					c9.8-2.4,20-3.5,30-3.4c18.5,0.5,26.9,1.4,25.7,18.8c-8.5-0.9-17.1-1.3-25.7-1.2c-30,0.6-45.4,4.3-45.4,28.5
					c0,25.3,15.3,32.1,45.4,32.1c12.4,0,28.1-0.3,45.6-5.4L318.6,31.4z M298.7,54.2v22.3c-8.4,1.3-17.1,1.8-25.7,1.6
					c-19.2-0.3-25.7-0.5-25.7-14c0-11.3,9-11.7,25.7-11.7C281.6,52.6,290.2,53.1,298.7,54.2L298.7,54.2z"/>
			</g>
		</g>
	</g>
</g>
<g>
	<path class="st0" d="M554,13.9V4h-3.5V2h9.4v2h-3.5v9.8H554z"/>
	<polygon class="st0" points="572.2,2 569,11 565.8,2 562.3,2 562.3,13.9 564.5,13.9 564.5,4.5 567.9,13.9 570.2,13.9 573.5,4.5 
		573.5,13.9 575.8,13.9 575.8,2 	"/>
</g>
</svg>
