<svg xmlns="http://www.w3.org/2000/svg" xmlns:xlink="http://www.w3.org/1999/xlink" xml:space="preserve" width="428.48434" height="162.825" viewBox="0 0 428.48434 162.82499"><defs><linearGradient id="j" x1="0" x2="1" y1="0" y2="0" gradientTransform="scale(10.16646) rotate(-62.02 32.411 -25.279)" gradientUnits="userSpaceOnUse" spreadMethod="pad"><stop offset="0" style="stop-opacity:1;stop-color:#231f20"/><stop offset="1" style="stop-opacity:1;stop-color:#fff"/></linearGradient><linearGradient id="p" x1="0" x2="1" y1="0" y2="0" gradientTransform="rotate(-154.44 221.224 27.716) scale(4.76869)" gradientUnits="userSpaceOnUse" spreadMethod="pad"><stop offset="0" style="stop-opacity:1;stop-color:#fff"/><stop offset="1" style="stop-opacity:1;stop-color:#231f20"/></linearGradient><linearGradient id="A" x1="0" x2="1" y1="0" y2="0" gradientTransform="scale(11.78964) rotate(77.106 9.96 27.872)" gradientUnits="userSpaceOnUse" spreadMethod="pad"><stop offset="0" style="stop-opacity:1;stop-color:#231f20"/><stop offset="1" style="stop-opacity:1;stop-color:#fff"/></linearGradient><linearGradient id="G" x1="0" x2="1" y1="0" y2="0" gradientTransform="rotate(-12.339 889.114 -1823.315) scale(4.59409)" gradientUnits="userSpaceOnUse" spreadMethod="pad"><stop offset="0" style="stop-opacity:1;stop-color:#231f20"/><stop offset="1" style="stop-opacity:1;stop-color:#fff"/></linearGradient><linearGradient id="K" x1="0" x2="1" y1="0" y2="0" gradientTransform="scale(10.16646) rotate(-62.021 21.495 -7.118)" gradientUnits="userSpaceOnUse" spreadMethod="pad"><stop offset="0" style="stop-color:#580a0d;stop-opacity:1"/><stop offset="0.00658633" style="stop-color:#1b1381;stop-opacity:1"/><stop offset="1" style="stop-color:#3b31e0;stop-opacity:1"/></linearGradient><linearGradient id="v" x1="0" x2="1" y1="0" y2="0" gradientTransform="rotate(-154.44 110.245 52.89) scale(4.76869)" gradientUnits="userSpaceOnUse" spreadMethod="pad"><stop offset="0" style="stop-opacity:1;stop-color:#fff"/><stop offset="1" style="stop-opacity:1;stop-color:#231f20"/></linearGradient><linearGradient id="M" x1="0" x2="1" y1="0" y2="0" gradientTransform="rotate(-154.44 110.245 52.889) scale(4.76869)" gradientUnits="userSpaceOnUse" spreadMethod="pad"><stop offset="0" style="stop-color:#3b31e0;stop-opacity:1"/><stop offset="1" style="stop-color:#3b31e0;stop-opacity:1"/></linearGradient><linearGradient id="P" x1="0" x2="1" y1="0" y2="0" gradientTransform="scale(11.78964) rotate(77.106 .548 16.06)" gradientUnits="userSpaceOnUse" spreadMethod="pad"><stop offset="0" style="stop-color:#1b1381;stop-opacity:1"/><stop offset="0.00658633" style="stop-color:#1b1481;stop-opacity:1"/><stop offset="1" style="stop-color:#3b31e0;stop-opacity:1"/></linearGradient><linearGradient id="e" x1="0" x2="1" y1="0" y2="0" gradientTransform="rotate(-12.339 778.139 -796.65) scale(4.59409)" gradientUnits="userSpaceOnUse" spreadMethod="pad"><stop offset="0" style="stop-opacity:1;stop-color:#231f20"/><stop offset="1" style="stop-opacity:1;stop-color:#fff"/></linearGradient><linearGradient id="R" x1="0" x2="1" y1="0" y2="0" gradientTransform="rotate(-12.339 778.137 -796.65) scale(4.59409)" gradientUnits="userSpaceOnUse" spreadMethod="pad"><stop offset="0" style="stop-color:#3b31e0;stop-opacity:1"/><stop offset="1" style="stop-color:#3b31e0;stop-opacity:1"/></linearGradient><linearGradient xlink:href="#e" id="d" x1="0" x2="1" y1="0" y2="0" gradientTransform="rotate(-12.339 778.139 -796.65) scale(4.59409)" gradientUnits="userSpaceOnUse" spreadMethod="pad"/><linearGradient xlink:href="#j" id="i" x1="0" x2="1" y1="0" y2="0" gradientTransform="scale(10.16646) rotate(-62.02 32.411 -25.279)" gradientUnits="userSpaceOnUse" spreadMethod="pad"/><linearGradient xlink:href="#j" id="k" x1="0" x2="1" y1="0" y2="0" gradientTransform="scale(10.16646) rotate(-62.02 32.411 -25.279)" gradientUnits="userSpaceOnUse" spreadMethod="pad"/><linearGradient xlink:href="#p" id="o" x1="0" x2="1" y1="0" y2="0" gradientTransform="rotate(-154.44 221.224 27.716) scale(4.76869)" gradientUnits="userSpaceOnUse" spreadMethod="pad"/><linearGradient xlink:href="#p" id="q" x1="0" x2="1" y1="0" y2="0" gradientTransform="rotate(-154.44 221.224 27.716) scale(4.76869)" gradientUnits="userSpaceOnUse" spreadMethod="pad"/><linearGradient xlink:href="#v" id="u" x1="0" x2="1" y1="0" y2="0" gradientTransform="rotate(-154.44 110.245 52.89) scale(4.76869)" gradientUnits="userSpaceOnUse" spreadMethod="pad"/><linearGradient xlink:href="#A" id="z" x1="0" x2="1" y1="0" y2="0" gradientTransform="scale(11.78964) rotate(77.106 9.96 27.872)" gradientUnits="userSpaceOnUse" spreadMethod="pad"/><linearGradient xlink:href="#A" id="B" x1="0" x2="1" y1="0" y2="0" gradientTransform="scale(11.78964) rotate(77.106 9.96 27.872)" gradientUnits="userSpaceOnUse" spreadMethod="pad"/><linearGradient xlink:href="#G" id="F" x1="0" x2="1" y1="0" y2="0" gradientTransform="rotate(-12.339 889.114 -1823.315) scale(4.59409)" gradientUnits="userSpaceOnUse" spreadMethod="pad"/><linearGradient xlink:href="#G" id="H" x1="0" x2="1" y1="0" y2="0" gradientTransform="rotate(-12.339 889.114 -1823.315) scale(4.59409)" gradientUnits="userSpaceOnUse" spreadMethod="pad"/><linearGradient xlink:href="#e" id="I" x1="0" x2="1" y1="0" y2="0" gradientTransform="rotate(-12.339 778.139 -796.65) scale(4.59409)" gradientUnits="userSpaceOnUse" spreadMethod="pad"/><linearGradient xlink:href="#v" id="J" x1="0" x2="1" y1="0" y2="0" gradientTransform="rotate(-154.44 110.245 52.89) scale(4.76869)" gradientUnits="userSpaceOnUse" spreadMethod="pad"/><clipPath id="f" clipPathUnits="userSpaceOnUse"><path d="M394.932 158.795h22.131v-23.974h-22.131z"/></clipPath><clipPath id="g" clipPathUnits="userSpaceOnUse"><path d="M394.932 158.794h22.131v-23.973h-22.131z"/></clipPath><clipPath id="h" clipPathUnits="userSpaceOnUse"><path d="m408.021 158.794 9.042-17.019-13.09-6.954-9.041 17.019z"/></clipPath><clipPath id="l" clipPathUnits="userSpaceOnUse"><path d="M395.383 158.613h21.229v-23.61h-21.229z"/></clipPath><clipPath id="m" clipPathUnits="userSpaceOnUse"><path d="M395.383 158.614h21.229v-23.611h-21.229z"/></clipPath><clipPath id="n" clipPathUnits="userSpaceOnUse"><path d="m416.612 141.166-12.884-6.163-8.345 17.449 12.885 6.162z"/></clipPath><clipPath id="w" clipPathUnits="userSpaceOnUse"><path d="M406.52 155.855h13.008v-17.19H406.52Z"/></clipPath><clipPath id="x" clipPathUnits="userSpaceOnUse"><path d="M406.521 155.855h13.006v-17.19h-13.006z"/></clipPath><clipPath id="y" clipPathUnits="userSpaceOnUse"><path d="m406.521 140.857 3.432 14.998 9.574-2.191-3.432-14.999z"/></clipPath><clipPath id="C" clipPathUnits="userSpaceOnUse"><path d="M406.645 155.795h12.758v-17.071h-12.758z"/></clipPath><clipPath id="D" clipPathUnits="userSpaceOnUse"><path d="M406.645 155.794h12.758v-17.07h-12.758z"/></clipPath><clipPath id="E" clipPathUnits="userSpaceOnUse"><path d="m409.926 155.794 9.477-2.073-3.28-14.997-9.478 2.073z"/></clipPath><clipPath id="r" clipPathUnits="userSpaceOnUse"><path d="M173.424 158.613h21.229v-23.61h-21.229z"/></clipPath><clipPath id="s" clipPathUnits="userSpaceOnUse"><path d="M173.424 158.614h21.229v-23.611h-21.229z"/></clipPath><clipPath id="t" clipPathUnits="userSpaceOnUse"><path d="m194.653 141.166-12.884-6.163-8.345 17.449 12.885 6.162z"/></clipPath><clipPath id="a" clipPathUnits="userSpaceOnUse"><path d="M184.686 155.795h12.759v-17.071h-12.759z"/></clipPath><clipPath id="b" clipPathUnits="userSpaceOnUse"><path d="M184.686 155.795h12.759v-17.07h-12.759z"/></clipPath><clipPath id="c" clipPathUnits="userSpaceOnUse"><path d="m187.967 155.795 9.478-2.073-3.28-14.997-9.479 2.073z"/></clipPath><clipPath id="Q" clipPathUnits="userSpaceOnUse"><path d="m187.655 146.6 3.171-6.128a.6.6 0 0 1 1.119.151l2.532 11.593-5.179 2.156z" style="stroke-width:.999998"/></clipPath><clipPath id="L" clipPathUnits="userSpaceOnUse"><path d="m181.944 155.322-1.522-7.115 5.376-10.389 1.857 8.782-4.592 8.873a.6.6 0 0 1-1.119-.151" style="stroke-width:.999998"/></clipPath><clipPath id="S" clipPathUnits="userSpaceOnUse"><path d="m187.655 146.6 3.171-6.128a.6.6 0 0 1 1.119.151l2.532 11.593-5.179 2.156z" style="stroke-width:.999997"/></clipPath><clipPath id="N" clipPathUnits="userSpaceOnUse"><path d="m181.944 155.322-1.522-7.115 5.376-10.389 1.857 8.782-4.592 8.873a.6.6 0 0 1-1.119-.151" style="stroke-width:.999997"/></clipPath><mask id="T" maskUnits="userSpaceOnUse"><g clip-path="url(#a)"><path d="M184.686 155.795h12.76v-17.071h-12.76z" style="fill:#000;fill-opacity:1;fill-rule:nonzero;stroke:none"/><g clip-path="url(#b)"><g clip-path="url(#c)"><path d="m187.967 155.795 9.478-2.073-3.28-14.997-9.479 2.073z" style="fill:url(#I);stroke:none"/></g></g></g></mask><mask id="O" maskUnits="userSpaceOnUse"><g clip-path="url(#r)"><path d="M173.424 158.614h21.229v-23.61h-21.229z" style="fill:#000;fill-opacity:1;fill-rule:nonzero;stroke:none"/><g clip-path="url(#s)"><g clip-path="url(#t)"><path d="m194.653 141.166-12.884-6.163-8.345 17.449 12.885 6.162z" style="fill:url(#J);stroke:none"/></g></g></g></mask></defs><path d="M0 0a.6.6 0 0 0 1.119.15l.001.001-1.238 2.392c-.31.599-.929.976-1.604.976h-1.641A1.806 1.806 0 0 1-5.129 2.09l-3.16-14.795a2.005 2.005 0 0 0-1.959-1.587l-10.578-.018a1.204 1.204 0 0 0-1.205 1.205v2.598a.24.24 0 0 0 .24.241h7.836c.853 0 1.589.596 1.767 1.43l.566 2.657a.502.502 0 0 1-.491.607h-9.678a.24.24 0 0 0-.24.24v3.428a.24.24 0 0 0 .24.241h9.724c.852 0 1.588.596 1.766 1.43l.67 3.146a.501.501 0 0 1-.491.606h-15.054a2.258 2.258 0 0 1-2.258-2.258v-15.2a5.418 5.418 0 0 1 5.419-5.418h13.494a5.418 5.418 0 0 1 5.299 4.285l1.701 7.956z" style="fill:#3b31e0;fill-opacity:1;fill-rule:nonzero;stroke:none" transform="matrix(7.1176 0 0 -7.1176 195.264 25.047)"/><path d="m181.944 155.322-1.522-7.115 5.376-10.389 1.857 8.782-4.592 8.873a.6.6 0 0 1-1.119-.151" clip-path="url(#L)" style="fill:url(#K);stroke:none" transform="matrix(7.1176 0 0 -7.1176 -1099.739 1130.572)"/><path d="m194.653 141.165-12.884-6.162-8.345 17.448 12.885 6.162z" clip-path="url(#N)" mask="url(#O)" style="fill:url(#M);stroke:none" transform="matrix(7.1176 0 0 -7.1176 -1099.739 1130.572)"/><path d="m187.655 146.6 3.171-6.128a.6.6 0 0 1 1.119.151l2.532 11.593-5.179 2.156z" clip-path="url(#Q)" style="fill:url(#P);stroke:none" transform="matrix(7.1176 0 0 -7.1176 -1099.739 1130.572)"/><path d="m187.966 155.795 9.479-2.073-3.28-14.998-9.479 2.073z" clip-path="url(#S)" mask="url(#T)" style="fill:url(#R);stroke:none" transform="matrix(7.1176 0 0 -7.1176 -1099.739 1130.572)"/><path d="M389.921 0H285.6c-18.229 0-33.966 12.755-37.73 30.584l-.634 2.997 36.84 15.331.385-1.758a14.28 14.28 0 0 1 13.957-11.239h83.056c4.733 0 8.57 3.83 8.57 8.57v48.94c0 .947-.77 1.716-1.716 1.716H348.56a1.285 1.285 0 0 1-1.253-1.559l6.933-32.549c.477-2.22-1.217-4.32-3.488-4.32h-24.72a12.856 12.856 0 0 0-12.569 10.178l-19.516 91.618a3.57 3.57 0 0 0 3.494 4.313h24.705a12.851 12.851 0 0 0 12.577-10.185l5.118-24.043a2.154 2.154 0 0 1 2.1-1.701h46.385c.947 0 1.715.768 1.715 1.715v30.641a3.57 3.57 0 0 0 3.566 3.573h31.31a3.574 3.574 0 0 0 3.566-3.573V38.563C428.484 17.26 411.224 0 389.921 0" style="fill:#3b31e0;fill-opacity:1;fill-rule:nonzero;stroke:none;stroke-width:7.1176"/><path d="M0 0a.6.6 0 0 0-1.119-.15L-4.29 5.978l-.107.207-1.857-8.782.108-.207h-.001l.454-.877c.31-.6.929-.976 1.604-.976h1.618c.849 0 1.584.591 1.765 1.421z" style="fill:#3b31e0;fill-opacity:1;fill-rule:nonzero;stroke:none" transform="matrix(7.1176 0 0 -7.1176 266.447 129.677)"/></svg>