<?xml version="1.0" encoding="utf-8"?>
<!-- Generator: Adobe Illustrator 27.0.1, SVG Export Plug-In . SVG Version: 6.00 Build 0)  -->
<svg version="1.1" id="Слой_1" xmlns="http://www.w3.org/2000/svg" xmlns:xlink="http://www.w3.org/1999/xlink" x="0px" y="0px"
	 width="500px" height="250px" viewBox="0 0 500 250" style="enable-background:new 0 0 500 250;" xml:space="preserve">
<style type="text/css">
	.st0{fill-rule:evenodd;clip-rule:evenodd;}
	.st1{fill-rule:evenodd;clip-rule:evenodd;fill:#FFCA05;}
</style>
<g>
	<path class="st0" d="M0,250h500V0H0V250z"/>
	<g>
		<path class="st1" d="M40.6,50h65v30h-26v28.4H104V137H79.6v33h28.6v30H40.6V50z M198.1,50l-13.7,66.3l20.7,83.7h-36.1
			c-4.3-15-8.3-33.2-11.9-54.7c-1,9.5-2.4,19.6-4.1,30.2l-3.7,24.5h-38l14.2-83.7L111.3,50H149c0.7,4.1,2,11,4.1,20.7
			c1.6,7.3,3,14.1,4,20.3l8.3-40.9H198.1L198.1,50z"/>
		<path class="st1" d="M289.1,50l-13.7,66.3L296,200h-36.1c-4.3-15-8.3-33.2-11.9-54.7c-1,9.5-2.4,19.6-4.1,30.2l-3.7,24.5h-38
			l14.2-83.7L202.3,50H240c0.7,4.1,2,11,4.1,20.7c1.6,7.3,3,14.1,4,20.3l8.3-40.9H289.1z M298.1,50h65v30h-26v28.4h24.4V137h-24.4
			v33h28.6v30h-67.6V50z M459.8,50v150h-34.2l-20.3-68.2V200h-32.6V50h32.6l21.9,67.5V50H459.8z"/>
	</g>
	<path class="st0" d="M312.6,136.4h24.2V108h-24.2V136.4z"/>
</g>
</svg>
