<?xml version="1.0" encoding="UTF-8"?>
<svg width="480px" height="423px" viewBox="0 0 480 423" version="1.1" xmlns="http://www.w3.org/2000/svg" xmlns:xlink="http://www.w3.org/1999/xlink">
    <title>jtbc-logo</title>
    <defs>
        <rect id="path-1" x="0" y="0" width="476" height="243"></rect>
        <path d="M42.5497469,95.5921028 C42.5547845,119.023282 23.4654155,138.081021 0,138.081021 L0,194.721177 C54.7509569,194.721177 99.3006544,150.250885 99.3006544,95.5921028 L99.2939375,0 L42.5497469,0 L42.5497469,95.5921028 Z" id="path-3"></path>
        <linearGradient x1="43.1307875%" y1="37.7416778%" x2="56.869018%" y2="62.2581746%" id="linearGradient-5">
            <stop stop-color="#FFFF00" offset="0%"></stop>
            <stop stop-color="#FFFF00" stop-opacity="0" offset="75%"></stop>
        </linearGradient>
        <linearGradient x1="22.2639252%" y1="63.2621957%" x2="77.7365363%" y2="36.7380625%" id="linearGradient-6">
            <stop stop-color="#F0047F" offset="0%"></stop>
            <stop stop-color="#F0047F" stop-opacity="0" offset="75%"></stop>
        </linearGradient>
        <path d="M121.370638,135.464332 C114.348142,139.468989 107.822694,141.626374 99.3040128,141.626374 C75.7915792,141.626374 56.7324361,122.593779 56.7324361,99.1341032 C56.7324361,75.6626932 75.7915792,56.6368039 99.3040128,56.6368039 C107.824373,56.6368039 114.348142,58.7908363 121.370638,62.7988452 L121.370638,2.46079344 C114.275935,0.856584094 106.887369,0 99.3040128,0 C44.4640573,0 0,44.3848016 0,99.1357795 C0,153.880052 44.4640573,198.263178 99.3040128,198.263178 C106.887369,198.263178 114.275935,197.409946 121.370638,195.80406 L121.370638,135.464332 Z" id="path-7"></path>
        <linearGradient x1="97.0285753%" y1="56.0248553%" x2="2.971508%" y2="43.9748595%" id="linearGradient-9">
            <stop stop-color="#00A0C6" offset="0%"></stop>
            <stop stop-color="#00A0C6" stop-opacity="0" offset="75%"></stop>
        </linearGradient>
        <path d="M156.03477,143.869249 C156.03477,120.754889 163.980837,99.5012107 177.265144,82.642764 L177.265144,82.6025331 C159.079195,59.570311 130.896851,44.7418514 99.2956167,44.7418514 C84.0751698,44.7418514 69.6573898,48.1832744 56.7475491,54.3302291 L56.7408322,0 L0,0.00838144906 L0.00671687863,143.870926 C0.0117545376,198.528031 44.5496975,243 99.2939375,243 C130.893493,243 159.077516,228.168188 177.27354,205.135966 L177.27354,205.095735 C163.984196,188.228907 156.03477,166.981933 156.03477,143.869249 L156.03477,143.869249 Z M99.2956167,186.356491 C75.8318805,186.356491 56.7475491,167.2954 56.7408322,143.867573 C56.7475491,120.441423 75.8318805,101.383684 99.2956167,101.383684 C122.755995,101.383684 141.847044,120.441423 141.847044,143.867573 C141.852081,167.298752 122.754315,186.356491 99.2956167,186.356491 Z" id="path-10"></path>
        <path d="M0,143.862544 C0,198.51965 44.5480183,242.991619 99.3040128,242.991619 L99.297296,186.34811 C75.8369181,186.351462 56.7441906,167.293723 56.7441906,143.862544 L56.7441906,104.915627 L99.3040128,104.918979 L99.3040128,48.2704414 L56.7441906,48.2704414 L56.7441906,0 L0.00671687863,48.2687651 L0,143.862544 Z" id="path-12"></path>
    </defs>
    <g id="jtbc-logo" stroke="none" stroke-width="1" fill="none" fill-rule="evenodd">
        <g id="JTBC_logo" transform="translate(2.000000, 90.000000)">
            <mask id="mask-2" fill="white">
                <use xlink:href="#path-1"></use>
            </mask>
            <g id="SVGID_1_"></g>
            <g id="g4668" mask="url(#mask-2)">
                <g transform="translate(-0.000017, 0.003353)">
                    <g id="g4685-Clipped" transform="translate(0.000000, 48.277147)">
                        <mask id="mask-4" fill="white">
                            <use xlink:href="#path-3"></use>
                        </mask>
                        <g id="path4683"></g>
                        <g id="g4685" mask="url(#mask-4)">
                            <g transform="translate(-76.581887, -54.385223)">
                                <path d="M399.077702,298.503308 C229.988678,320.209585 56.184406,272.145327 10.8807389,191.150356 C-34.4313243,110.16209 65.915484,26.9141854 235.011224,5.21126126 C404.100248,-16.4916629 577.896124,31.5742711 623.211545,112.567566 C668.513533,193.555832 568.166725,276.808765 399.077702,298.503308 Z" id="path4698" fill="#FFFFFF" fill-rule="nonzero"></path>
                                <g id="path4715-Clipped" stroke-width="1" fill="none" fill-rule="evenodd">
                                    <path d="M399.077702,298.503308 C229.988678,320.209585 56.184406,272.145327 10.8807389,191.150356 C-34.4313243,110.16209 65.915484,26.9141854 235.011224,5.21126126 C404.100248,-16.4916629 577.896124,31.5742711 623.211545,112.567566 C668.513533,193.555832 568.166725,276.808765 399.077702,298.503308 Z" id="path4715" fill="url(#linearGradient-5)" fill-rule="nonzero"></path>
                                </g>
                                <path d="M541.201816,44.4900841 C665.002285,103.788836 665.002285,199.92741 541.201816,259.232867 C417.404705,318.531619 216.672466,318.531619 92.8719971,259.232867 C-30.9435851,199.925733 -30.9368682,103.792189 92.8686387,44.4884078 C216.672466,-14.8136968 417.397988,-14.8136968 541.201816,44.4900841 Z" id="path4722" fill="url(#linearGradient-6)" fill-rule="nonzero"></path>
                            </g>
                        </g>
                    </g>
                    <g id="g4739-Clipped" transform="translate(354.629362, 44.733470)">
                        <mask id="mask-8" fill="white">
                            <use xlink:href="#path-7"></use>
                        </mask>
                        <g id="path4737"></g>
                        <g id="g4739" mask="url(#mask-8)">
                            <g transform="translate(-431.272485, -50.868946)">
                                <g id="g4741" stroke-width="1" fill="none" fill-rule="evenodd">
                                    <path d="M10.881523,112.584908 C56.1935863,31.5798792 230.024726,-16.4910838 399.15573,5.21016413 C568.278337,26.9130883 668.635221,110.182785 623.31812,191.184461 C578.006057,272.18949 404.16988,320.268834 235.048951,298.559205 C65.9280226,276.852928 -34.4355778,193.593289 10.881523,112.584908 Z" id="path4743" fill="#FFFFFF" fill-rule="nonzero"></path>
                                </g>
                                <g id="g4745" stroke-width="1" fill="none" fill-rule="evenodd">
                                    <path d="M10.881523,112.584908 C56.1935863,31.5798792 230.024726,-16.4910838 399.15573,5.21016413 C568.278337,26.9130883 668.635221,110.182785 623.31812,191.184461 C578.006057,272.18949 404.16988,320.268834 235.048951,298.559205 C65.9280226,276.852928 -34.4355778,193.593289 10.881523,112.584908 Z" id="path4752" fill="url(#linearGradient-9)" fill-rule="nonzero"></path>
                                </g>
                                <path d="M399.138938,298.530708 C230.049914,320.236985 56.2456421,272.172727 10.9419749,191.177756 C-34.3700883,110.18949 65.97672,26.9415852 235.07246,5.23866105 C404.161484,-16.4642631 577.95736,31.6016709 623.272781,112.594966 C668.574769,193.583232 568.227961,276.836165 399.138938,298.530708 Z" id="path4770" fill="url(#linearGradient-5)" fill-rule="nonzero"></path>
                                <path d="M541.263052,44.5174839 C665.063521,103.816236 665.063521,199.954809 541.263052,259.260267 C417.465941,318.559019 216.733702,318.559019 92.9332331,259.260267 C-30.882349,199.953133 -30.8756322,103.819589 92.9298747,44.5158076 C216.733702,-14.786297 417.459224,-14.786297 541.263052,44.5174839 Z" id="path4777" fill="url(#linearGradient-6)" fill-rule="nonzero"></path>
                            </g>
                        </g>
                    </g>
                    <g id="g4794-Clipped" transform="translate(198.596271, 0.000000)">
                        <mask id="mask-11" fill="white">
                            <use xlink:href="#path-10"></use>
                        </mask>
                        <g id="path4792"></g>
                        <g id="g4794" mask="url(#mask-11)">
                            <g transform="translate(-275.239394, -6.135476)">
                                <g id="g4796" stroke-width="1" fill="none" fill-rule="evenodd">
                                    <path d="M10.881523,112.584908 C56.1935863,31.5798792 230.024726,-16.4910838 399.15573,5.21016413 C568.278337,26.9130883 668.635221,110.182785 623.31812,191.184461 C578.006057,272.18949 404.16988,320.268834 235.048951,298.559205 C65.9280226,276.852928 -34.4355778,193.593289 10.881523,112.584908 Z" id="path4798" fill="#FFFFFF" fill-rule="nonzero"></path>
                                </g>
                                <g id="g4800" stroke-width="1" fill="none" fill-rule="evenodd">
                                    <path d="M10.881523,112.584908 C56.1935863,31.5798792 230.024726,-16.4910838 399.15573,5.21016413 C568.278337,26.9130883 668.635221,110.182785 623.31812,191.184461 C578.006057,272.18949 404.16988,320.268834 235.048951,298.559205 C65.9280226,276.852928 -34.4355778,193.593289 10.881523,112.584908 Z" id="path4807" fill="url(#linearGradient-9)" fill-rule="nonzero"></path>
                                </g>
                                <path d="M399.138938,298.530708 C230.049914,320.236985 56.2456421,272.172727 10.9419749,191.177756 C-34.3700883,110.18949 65.97672,26.9415852 235.07246,5.23866105 C404.161484,-16.4642631 577.95736,31.6016709 623.272781,112.594966 C668.574769,193.583232 568.227961,276.836165 399.138938,298.530708 Z" id="path4825" fill="url(#linearGradient-5)" fill-rule="nonzero"></path>
                                <path d="M541.263052,44.5174839 C665.063521,103.816236 665.063521,199.954809 541.263052,259.260267 C417.465941,318.559019 216.733702,318.559019 92.9332331,259.260267 C-30.882349,199.953133 -30.8756322,103.819589 92.9298747,44.5158076 C216.733702,-14.786297 417.459224,-14.786297 541.263052,44.5174839 Z" id="path4832" fill="url(#linearGradient-6)" fill-rule="nonzero"></path>
                            </g>
                        </g>
                    </g>
                    <g id="g4849-Clipped" transform="translate(99.300654, 0.006705)">
                        <mask id="mask-13" fill="white">
                            <use xlink:href="#path-12"></use>
                        </mask>
                        <g id="path4847"></g>
                        <g id="g4849" mask="url(#mask-13)">
                            <g transform="translate(-175.943778, -6.142181)">
                                <g id="g4851" stroke-width="1" fill="none" fill-rule="evenodd">
                                    <path d="M10.881523,112.584908 C56.1935863,31.5798792 230.024726,-16.4910838 399.15573,5.21016413 C568.278337,26.9130883 668.635221,110.182785 623.31812,191.184461 C578.006057,272.18949 404.16988,320.268834 235.048951,298.559205 C65.9280226,276.852928 -34.4355778,193.593289 10.881523,112.584908 Z" id="path4853" fill="#FFFFFF" fill-rule="nonzero"></path>
                                </g>
                                <g id="g4855" stroke-width="1" fill="none" fill-rule="evenodd">
                                    <path d="M10.881523,112.584908 C56.1935863,31.5798792 230.024726,-16.4910838 399.15573,5.21016413 C568.278337,26.9130883 668.635221,110.182785 623.31812,191.184461 C578.006057,272.18949 404.16988,320.268834 235.048951,298.559205 C65.9280226,276.852928 -34.4355778,193.593289 10.881523,112.584908 Z" id="path4862" fill="url(#linearGradient-9)" fill-rule="nonzero"></path>
                                </g>
                                <path d="M399.138938,298.530708 C230.049914,320.236985 56.2456421,272.172727 10.9419749,191.177756 C-34.3700883,110.18949 65.97672,26.9415852 235.07246,5.23866105 C404.161484,-16.4642631 577.95736,31.6016709 623.272781,112.594966 C668.574769,193.583232 568.227961,276.836165 399.138938,298.530708 Z" id="path4880" fill="url(#linearGradient-5)" fill-rule="nonzero"></path>
                                <path d="M541.263052,44.5174839 C665.063521,103.816236 665.063521,199.954809 541.263052,259.260267 C417.465941,318.559019 216.733702,318.559019 92.9332331,259.260267 C-30.882349,199.953133 -30.8756322,103.819589 92.9298747,44.5158076 C216.733702,-14.786297 417.459224,-14.786297 541.263052,44.5174839 Z" id="path4887" fill="url(#linearGradient-6)" fill-rule="nonzero"></path>
                            </g>
                        </g>
                    </g>
                    <g id="g4889">
                        <path d="M99.3006544,143.869249 C99.3006544,198.526355 143.848673,242.998324 198.604667,242.998324 L198.59795,186.354815 C175.137573,186.358167 156.044845,167.300428 156.044845,143.869249 L156.044845,104.922332 L198.604667,104.925684 L198.604667,48.2771466 L156.044845,48.2771466 L156.044845,0.00670515925 L99.3073713,48.2754703 L99.3006544,143.869249 Z" id="path4921"></path>
                        <path d="M476,180.197802 C468.977503,184.202459 462.452056,186.359844 453.933374,186.359844 C430.420941,186.359844 411.361798,167.327249 411.361798,143.867573 C411.361798,120.396163 430.420941,101.370274 453.933374,101.370274 C462.453735,101.370274 468.977503,103.524306 476,107.532315 L476,47.1942634 C468.905297,45.590054 461.51673,44.7334699 453.933374,44.7334699 C399.093419,44.7334699 354.629362,89.1182716 354.629362,143.869249 C354.629362,198.613522 399.093419,242.996647 453.933374,242.996647 C461.51673,242.996647 468.905297,242.143416 476,240.53753 L476,180.197802 Z" id="path4953"></path>
                        <path d="M354.631041,143.869249 C354.631041,120.754889 362.577108,99.5012107 375.861415,82.642764 L375.861415,82.6025331 C357.675466,59.570311 329.493123,44.7418514 297.891888,44.7418514 C282.671441,44.7418514 268.253661,48.1832744 255.34382,54.3302291 L255.337103,0 L198.596271,0.00838144906 L198.602988,143.870926 C198.608026,198.528031 243.145969,243 297.890209,243 C329.489764,243 357.673787,228.168188 375.869811,205.135966 L375.869811,205.095735 C362.580467,188.228907 354.631041,166.981933 354.631041,143.869249 L354.631041,143.869249 Z M297.891888,186.356491 C274.428152,186.356491 255.34382,167.2954 255.337103,143.867573 C255.34382,120.441423 274.428152,101.383684 297.891888,101.383684 C321.352266,101.383684 340.443315,120.441423 340.443315,143.867573 C340.448352,167.298752 321.350586,186.356491 297.891888,186.356491 Z" id="path4985"></path>
                        <path d="M42.5497469,143.869249 C42.5547845,167.300428 23.4654155,186.358167 0,186.358167 L0,242.998324 C54.7509569,242.998324 99.3006544,198.528031 99.3006544,143.869249 L99.2939375,48.2771466 L42.5497469,48.2771466 L42.5497469,143.869249 Z" id="path5017"></path>
                    </g>
                </g>
            </g>
        </g>
    </g>
</svg>