<?xml version="1.0" encoding="UTF-8"?>
<svg class="_2DznY" fill="currentColor" version="1.1" viewBox="0 0 1000 348.09" xmlns="http://www.w3.org/2000/svg">
 <title>Magnolia Network</title>
 <g stroke-width="2.4217">
  <path d="m761.83 178.14a34.799 34.799 0 1034.799 34.799 34.823 34.823 0 00-34.799-34.799zm0 55.335c-11.576 0-18.986-9.1539-18.986-20.536s7.4103-20.56 18.986-20.56c11.576 0 18.986 9.1539 18.986 20.56 0 11.406-7.4103 20.536-18.986 20.536z"/>
  <path d="m452.9 220.42-32.402-39.909h-13.15v64.949h15.353v-39.909l32.402 39.909h13.15v-64.949h-15.353z"/>
  <path d="m557.39 193.88h19.664v51.581h15.353v-51.581h19.664v-13.368h-54.681z"/>
  <path d="m508.02 219.5h29.351v-13.053h-29.351v-12.883h33.08v-13.053h-48.433v64.949h48.748v-13.053h-33.395z"/>
  <path d="m952.34 180.51h-17.073l-20.681 25.064v-25.064h-15.353v64.949h15.353v-18.114l6.0057-7.7493 18.647 25.863h18.066l-27.752-37.39z"/>
  <path d="m875.99 203.76c0-14.53-11.576-23.272-26.445-23.272h-30.416v64.973h15.353v-18.405h13.997l13.053 18.405h18.066l-15.959-21.529a21.601 21.601 0 0012.35-20.172zm-26.227 10.219h-15.281v-20.439h15.281c8.7664 0 11.091 6.4416 11.091 10.219 0 3.7778-2.3248 10.219-11.091 10.219z"/>
  <path d="m687.8 220.52-12.278-40.006h-13.15l-12.254 40.006-11.236-40.006h-15.305l19.349 64.949h13.15l12.883-40.853 12.859 40.853h13.15l19.373-64.949h-15.305z"/>
  <path d="m780.02 89.868a34.799 34.799 0 1034.799 34.799 34.823 34.823 0 00-34.799-34.799zm0 55.359c-11.576 0-18.986-9.1539-18.986-20.56 0-11.406 7.4103-20.536 18.986-20.536s18.986 9.1539 18.986 20.536-7.4345 20.56-18.986 20.56z"/>
  <path d="m707.37 131.96-31.99-39.715h-13.586v64.973h15.353v-39.691l31.99 39.691h13.586v-64.973h-15.353z"/>
  <path d="m898.29 92.241h15.353v64.973h-15.353z"/>
  <path d="m852.64 92.241h-15.353v64.973h45.794v-13.368h-30.44z"/>
  <path d="m441.25 118.59-15.935-26.348h-17.969v64.973h15.329v-42.766l18.574 30.682 18.55-30.682v42.766h15.353v-64.973h-17.969z"/>
  <path d="m608.15 159.25c17.218 0 31.07-11.164 31.07-30.731v-10.171h-31.482v12.641h16.588s.31482 14.53-16.177 14.53c-12.108 0-19.204-9.2507-19.204-20.778 0-12.108 7.5556-20.754 19.204-20.754a16.952 16.952 0 0113.828 5.9815l10.123-9.8562a31.772 31.772 0 00-23.95-9.953 34.581 34.581 0 100 69.163z"/>
  <path d="m535.11 92.241h-13.319l-27.752 64.973h16.346l4.7222-12.108h26.469l4.6738 12.108h16.37zm-14.966 40.248 8.3305-21.335 8.2821 21.335z"/>
  <path d="m972.39 92.241h-13.198l-27.776 64.973h16.346l4.7222-12.108h26.469l4.698 12.108h16.346zm-14.966 40.248 8.3547-21.335 8.2821 21.335z"/>
  <path d="m269.19 144.74a3.5114 3.5114 0 00-1.0655-2.4217l-36.325-34.751a3.4388 3.4388 0 00-2.4217-.96867h-7.8704a3.4388 3.4388 0 00-2.4217.96867l-34.121 32.571 84.225 82.627z"/>
  <path d="m232.75 106.65a4.4316 4.4316 0 00-3.0755-1.235h-7.7493a4.4801 4.4801 0 00-3.0997 1.235l-34.872 33.298 86.55 84.952v-80.302a4.5043 4.5043 0 00-1.3804-3.2208z"/>
  <path d="m174.04 348.09a174.04 174.04 0 10-174.04-174.04 174.07 174.07 0 00174.04 174.04zm-110.31-205.84a13.174 13.174 0 014.0684-9.4929l38.141-36.325a18.526 18.526 0 0112.859-5.1581h7.7735a18.574 18.574 0 0112.859 5.1581l34.606 33.056 34.606-32.935a18.623 18.623 0 0112.883-5.1581h7.7735a18.623 18.623 0 0112.859 5.1581l38.141 36.325a13.271 13.271 0 014.0684 9.4929v99.482a4.8433 4.8433 0 01-4.8433 4.8433h-4.3832a7.5556 7.5556 0 01-5.3276-2.1795l-88.173-86.502v83.838a4.8433 4.8433 0 01-4.8433 4.8433h-5.5456a4.8433 4.8433 0 01-4.8433-4.8433v-97.109a3.5114 3.5114 0 00-1.0655-2.4217l-36.325-34.751a3.4388 3.4388 0 00-2.4217-.96867h-7.7735a3.4388 3.4388 0 00-2.4217.96867l-36.325 34.751a3.5114 3.5114 0 00-1.0655 2.4217v97.109a4.8433 4.8433 0 01-4.8433 4.8433h-5.5456a4.8433 4.8433 0 01-4.8433-4.8433z"/>
 </g>
</svg>
