


<svg version="1.1" id="레이어_1" xmlns="http://www.w3.org/2000/svg" xmlns:xlink="http://www.w3.org/1999/xlink" x="0px" y="0px" width="1000px" height="293.98px" viewBox="0 0 1000 293.98" enable-background="new 0 0 1000 293.98" xml:space="preserve">
<g>
	<path fill="#EC6C00" d="M627.609,142.408c18.221-14.669,29.916-37.083,29.916-62.279c0-41.963-36.023-76.047-77.3-79.407
		c-0.601-0.073-1.263-0.122-3.286-0.362c-1.818-0.145-4.411-0.251-4.697-0.251h-207.88v133.362v26.664V293.98H577.83l6.383-0.012
		c-3.118,0,0.472,0.024,5.324-0.229c1.108-0.049,2.239-0.071,3.469-0.12c0.479-0.012,1.034-0.048,1.528-0.073
		c42.864-1.759,76.709-36.613,76.709-79.814C671.243,182.635,653.502,155.738,627.609,142.408z M436.95,69.15h125.31
		c12.524,0,22.678,10.153,22.678,22.678l0,0c0,12.522-10.153,22.676-22.678,22.676H436.95V69.15z M576.235,224.822H436.95v-44.844
		h139.285c12.383,0,22.421,10.039,22.421,22.421C598.656,214.783,588.618,224.822,576.235,224.822z"></path>
	<path fill="#EC6C00" d="M999.977,0h-72.733v178.978L792.811,12.914C786.198,4.746,776.252,0,765.742,0h-68.191V293.98h72.553
		V100.229l146.332,180.763c6.602,8.158,16.531,12.901,27.022,12.914L1000,293.98L999.977,0z"></path>
	<path fill="#EC6C00" d="M257.142,0c-10.51,0-20.459,4.746-27.072,12.917l-69.144,80.205L91.78,12.916
		C85.168,4.746,75.219,0,64.709,0H0V293.98h72.611V104.6l83.208,98.043c2.675,3.152,7.537,3.152,10.212,0l83.207-98.043V293.98
		h72.612V0H257.142z"></path>
</g>
</svg>
