<svg xmlns="http://www.w3.org/2000/svg" width="350.86505pt" height="150pt" viewBox="0 0 350.86505 150"><path fill="#f0047e" d="M0 29.166h23.575v72.11c0 18.037 5.998 28.924 21.43 28.924 18.193 0 24.865-8.612 24.865-31.996V29.166h23.555v70.49c0 34.109-17.38 48.733-48.254 48.733C14.796 148.389 0 133.932 0 98.357ZM133.619 0h19.608v29.166h28.994v18.471h-28.994v28.837h-19.608V47.637h-29.01v-18.47h29.01z"/><path fill="#4c4c4c" d="m209.18 50.204 23.393-4.253v19.632h28.307v17.18h-28.307v33.703c0 8.176.655 15.54 10.801 15.54 6.705 0 11.938-1.471 17.013-4.09l3.599 15.379c-8.344 4.42-17.83 6.705-28.139 6.705-21.596 0-26.505-11.12-26.505-28.631V82.764h-14.07V67.547l13.908-1.634zm55.304 15.38h25.028l17.51 66.586h1.797l18.323-66.586h23.723l-28.301 82.458h-30.591z"/></svg>