<?xml version="1.0" encoding="UTF-8" standalone="no"?>
<svg
   xmlns:dc="http://purl.org/dc/elements/1.1/"
   xmlns:cc="http://creativecommons.org/ns#"
   xmlns:rdf="http://www.w3.org/1999/02/22-rdf-syntax-ns#"
   xmlns:svg="http://www.w3.org/2000/svg"
   xmlns="http://www.w3.org/2000/svg"
   xmlns:sodipodi="http://sodipodi.sourceforge.net/DTD/sodipodi-0.dtd"
   xmlns:inkscape="http://www.inkscape.org/namespaces/inkscape"
   width="1000"
   height="227.18668"
   viewBox="0 0 1000 227.18668"
   version="1.1"
   id="svg983"
   sodipodi:docname="A.svg"
   style="fill:none"
   inkscape:version="0.92.4 (5da689c313, 2019-01-14)">
  <metadata
     id="metadata987">
    <rdf:RDF>
      <cc:Work
         rdf:about="">
        <dc:format>image/svg+xml</dc:format>
        <dc:type
           rdf:resource="http://purl.org/dc/dcmitype/StillImage" />
        <dc:title></dc:title>
      </cc:Work>
    </rdf:RDF>
  </metadata>
  <sodipodi:namedview
     pagecolor="#ffffff"
     bordercolor="#111111"
     borderopacity="1"
     objecttolerance="10"
     gridtolerance="10"
     guidetolerance="10"
     inkscape:pageopacity="0"
     inkscape:pageshadow="2"
     inkscape:window-width="1920"
     inkscape:window-height="1017"
     id="namedview985"
     showgrid="false"
     fit-margin-top="0"
     fit-margin-left="0"
     fit-margin-right="0"
     fit-margin-bottom="0"
     inkscape:zoom="0.78066038"
     inkscape:cx="474.23561"
     inkscape:cy="52.990549"
     inkscape:window-x="1912"
     inkscape:window-y="-8"
     inkscape:window-maximized="1"
     inkscape:current-layer="svg983" />
  <path
     style="clip-rule:evenodd;fill:#15103a;fill-opacity:1;fill-rule:evenodd;stroke-width:9.46611118"
     inkscape:connector-curvature="0"
     id="path964"
     d="m 353.36047,0 c 0.78001,11.65723 4.84002,21.20683 11.89133,27.50388 6.21923,5.56844 14.70182,8.43071 24.64123,8.37864 h 13.4788 v 42.5178 h -13.55642 c -6.0886,0 -12.04752,-0.59845 -17.79818,-1.79544 C 358.56399,73.82071 346.77679,67.94008 336.9415,59.14502 326.97558,50.2199 319.42919,38.40657 315.13631,24.92787 312.6117,17.06957 311.18042,8.74296 310.84248,0 Z M 182.66755,206.91594 C 165.78001,56.43847 231.58652,45.09343 283.10772,45.09343 l -0.0265,0.026 0.1666,0.004 c 1.26278,0.0324 5.60015,0.14332 8.49868,0.49016 v 41.60706 l -9.3156,-0.36426 c -45.4326,-1.8475 -57.24536,24.12117 -57.24536,68.82488 0.12968,15.66452 1.40477,31.71904 3.17398,51.23438 z M 132.78398,45.59267 c -6.40193,23.44462 -14.52006,49.51714 -22.56058,73.74281 -5.88035,17.64199 -18.110091,50.86993 -18.110091,50.86993 h -2.05566 C 83.552442,153.16263 77.87997,136.97747 71.973211,119.33548 63.85479,95.13631 55.372018,69.03729 49.049034,45.59267 H 0 c 8.5608103,26.93137 17.98031,53.83652 28.362552,81.18412 l 1.702575,4.48693 c 9.782658,25.78569 19.353086,51.01193 30.667171,75.65695 h 59.119082 c 10.89928,-24.00322 20.25559,-48.55831 29.81352,-73.6435 l 2.47823,-6.50038 c 10.43449,-27.3476 19.87978,-54.25275 28.44093,-81.18412 h -47.77452 z m 244.93374,121.0923 c 7.10337,0 17.35517,-2.88811 25.656,-7.02575 l 13.08879,37.96478 c -16.21166,8.53465 -27.73854,11.21451 -41.11321,11.29213 -36.79288,0.26032 -58.67664,-19.69709 -64.08841,-56.0479 -3.43526,-23.05471 -3.30462,-39.31749 -1.17096,-65.67645 h 43.66244 c -2.28986,22.1437 -1.53541,46.65525 0.46857,58.6242 2.70541,16.13309 10.17418,20.86899 23.49678,20.86899 z"
     class="fill-vrt" />
  <path
     style="fill:#ff4944;stroke-width:9.46611118"
     inkscape:connector-curvature="0"
     id="path966"
     d="M 955.34835,0.41599 H 513.25634 c -24.66016,0 -44.65164,19.99115 -44.65164,44.6515 v 137.46753 c 0,24.66017 19.99148,44.65165 44.65164,44.65165 h 442.09201 c 24.65922,0 44.65165,-19.99148 44.65165,-44.65165 V 45.06749 c 0,-24.66035 -19.99243,-44.6515 -44.65165,-44.6515 z" />
  <path
     style="fill:#ffffff;stroke-width:9.46611118"
     inkscape:connector-curvature="0"
     id="path968"
     d="m 525.66925,59.43506 h 27.50379 v 17.66802 c 5.59447,-11.3971 16.75786,-19.43742 32.63063,-19.43742 17.87581,0 30.18365,7.59797 35.10129,21.46705 5.1524,-11.63129 19.43771,-21.46705 37.34002,-21.46705 24.35536,0 40.01988,17.66802 40.01988,41.58084 v 72.85781 h -27.26997 v -64.60904 c 0,-15.87259 -8.27433,-26.38499 -21.46725,-26.38499 -14.75293,0 -23.91234,10.5124 -23.91234,26.38499 v 64.60904 h -27.26998 v -64.60904 c 0,-15.87259 -8.27432,-26.38499 -21.46724,-26.38499 -14.51913,0 -23.70504,10.5124 -23.70504,26.38499 v 64.60904 h -27.50379 z" />
  <path
     style="fill:#ffffff;stroke-width:9.46611118"
     inkscape:connector-curvature="0"
     id="path970"
     d="m 714.44907,115.7677 c 0,-34.42493 19.67153,-58.12978 53.1863,-58.12978 14.07705,0 26.38489,5.80263 32.86444,14.5195 V 59.40733 h 27.50379 v 112.66953 h -27.50379 v -13.19197 c -5.36066,8.95021 -18.31882,14.98769 -32.42143,14.98769 -33.98334,0 -53.65487,-23.70503 -53.65487,-58.10488 z m 88.08027,0 c 0,-20.79042 -12.07402,-34.42493 -30.62665,-34.42493 -18.55263,0 -30.18364,13.63451 -30.18364,34.42493 0,20.79137 12.07402,34.42541 30.18364,34.42541 18.11056,0 30.62665,-13.63404 30.62665,-34.42541 z" />
  <path
     style="fill:#ffffff;stroke-width:9.46611118"
     inkscape:connector-curvature="0"
     id="path972"
     d="m 924.90439,133.12665 26.93204,38.97861 h -29.0657 l -20.81692,-29.63745 c -2.70542,-3.85081 -8.43052,-3.85081 -11.13688,0 l -20.81598,29.63745 h -29.27301 l 27.06078,-39.03067 c 13.81768,-19.93184 43.29894,-19.90628 57.09011,0.0521 z" />
  <path
     style="fill:#ffffff;stroke-width:9.46611118"
     inkscape:connector-curvature="0"
     id="path974"
     d="m 870.65222,96.3811 -25.8387,-36.94983 h 29.94983 l 16.96516,24.35536 c 2.70636,3.90316 8.48258,3.87713 11.18895,-0.026 L 919.70087,59.4313 h 30.18554 l -25.83965,36.94983 c -12.9591,18.52613 -40.41083,18.52613 -53.36899,0 z" />
  <defs
     id="defs981">
    <clipPath
       id="vrtmax-id">
      <rect
         width="105.64"
         height="24"
         id="rect978"
         x="0"
         y="0"
         style="fill:#ffffff" />
    </clipPath>
  </defs>
</svg>
